<svg width="301" height="301" fill="none" xmlns="http://www.w3.org/2000/svg"><rect width="301" height="301" rx="70" fill="#1F1F1F"/><path d="M232.886 50.335a4.163 4.163 0 0 0-1.499-4.26 4.188 4.188 0 0 0-4.508-.406L55.523 135.321a12.22 12.22 0 0 0-4.639 4.284 12.176 12.176 0 0 0 3.803 16.81l38.148 24.058a2.097 2.097 0 0 0 2.51-.2l101.702-90.721a2.087 2.087 0 0 1 2.866 0 2.077 2.077 0 0 1 .154 2.855L118.794 194.13a2.074 2.074 0 0 0-.426 1.647 2.079 2.079 0 0 0 .944 1.416l53.809 33.966a12.192 12.192 0 0 0 11.086.967 12.168 12.168 0 0 0 4.641-3.345 12.124 12.124 0 0 0 2.594-5.093l41.444-173.353ZM105.905 205.244a2.098 2.098 0 0 0-2.142-.066 2.123 2.123 0 0 0-1.096 1.851v30.321c0 1.672.494 3.307 1.418 4.697a8.418 8.418 0 0 0 3.775 3.115 8.368 8.368 0 0 0 4.859.481 8.391 8.391 0 0 0 4.306-2.314L134 226.27a2.14 2.14 0 0 0 .598-1.728 2.125 2.125 0 0 0-.96-1.554l-27.733-17.744Z" fill="#fff"/></svg>